<?xml version="1.0" standalone="no"?>
<!DOCTYPE svg PUBLIC "-//W3C//DTD SVG 20010904//EN"
 "http://www.w3.org/TR/2001/REC-SVG-20010904/DTD/svg10.dtd">
<svg version="1.0" xmlns="http://www.w3.org/2000/svg"
 width="260.000000pt" height="75.000000pt" viewBox="0 0 260.000000 75.000000"
 preserveAspectRatio="xMidYMid meet">

<g transform="translate(0.000000,75.000000) scale(0.100000,-0.100000)"
fill="#000000" stroke="none">
<path d="M139 674 c-11 -13 -6 -22 34 -61 40 -40 48 -45 62 -33 14 12 24 5 81
-51 l64 -63 0 112 0 112 -114 0 c-91 0 -116 -3 -127 -16z"/>
<path d="M610 632 c-41 -6 -70 -40 -70 -82 0 -45 17 -62 88 -85 38 -12 52 -22
52 -35 0 -33 -39 -36 -98 -7 -18 9 -26 7 -40 -7 -16 -16 -16 -18 6 -36 48 -39
148 -38 177 3 17 25 20 70 5 97 -6 11 -35 27 -66 37 -58 18 -75 36 -55 56 8 8
22 8 53 0 44 -12 68 -4 68 22 0 21 -74 44 -120 37z"/>
<path d="M1250 495 l0 -145 24 0 c14 0 28 5 31 10 4 7 12 7 25 0 79 -42 160
44 131 140 -18 61 -91 91 -133 53 -17 -15 -18 -14 -18 35 0 51 -1 52 -30 52
l-30 0 0 -145z m150 -7 c13 -25 13 -31 0 -55 -29 -52 -90 -33 -90 27 0 60 61
79 90 28z"/>
<path d="M100 568 c0 -21 2 -38 4 -38 9 0 12 50 5 62 -6 8 -9 -1 -9 -24z"/>
<path d="M787 563 c-4 -3 -7 -41 -7 -83 0 -63 4 -82 21 -104 24 -30 63 -34 97
-10 20 14 22 14 22 -1 0 -12 7 -15 28 -13 l27 3 0 105 0 105 -27 3 c-28 3 -28
3 -28 -60 0 -61 -17 -108 -40 -108 -26 0 -40 34 -40 101 0 66 -1 69 -23 69
-13 0 -27 -3 -30 -7z"/>
<path d="M1016 558 c4 -7 20 -32 36 -55 l28 -42 -35 -49 c-19 -27 -35 -52 -35
-56 0 -3 13 -6 30 -6 23 0 33 7 45 30 9 17 20 30 25 30 5 0 17 -13 27 -30 13
-22 25 -30 45 -30 15 0 28 4 28 8 0 5 -15 30 -34 56 l-34 48 34 48 c19 26 34
50 34 54 0 3 -13 6 -30 6 -23 0 -33 -7 -46 -32 l-16 -32 -27 32 c-18 22 -35
32 -54 32 -20 0 -26 -4 -21 -12z"/>
<path d="M1551 556 c-33 -18 -50 -53 -51 -104 0 -70 57 -112 134 -98 47 9 65
32 40 51 -12 8 -23 10 -28 4 -22 -21 -86 -4 -86 23 0 4 32 8 71 8 l72 0 -6 42
c-10 74 -81 110 -146 74z m77 -48 c21 -21 13 -28 -28 -28 -22 0 -40 4 -40 8 0
14 23 32 40 32 9 0 21 -5 28 -12z"/>
<path d="M1740 460 l0 -110 30 0 c30 0 30 1 30 55 0 46 4 60 25 80 13 14 29
25 35 25 5 0 10 14 10 30 0 36 -20 40 -50 10 l-20 -20 0 20 c0 16 -7 20 -30
20 l-30 0 0 -110z"/>
<path d="M1919 541 c-79 -80 18 -219 109 -155 18 12 22 12 22 1 0 -7 -6 -21
-14 -32 -11 -15 -22 -17 -69 -12 -45 4 -57 2 -62 -10 -8 -23 6 -34 53 -40 68
-9 110 4 132 40 16 26 20 51 20 135 l0 102 -30 0 c-20 0 -30 -5 -30 -16 0 -14
-2 -14 -22 0 -35 25 -76 20 -109 -13z m115 -37 c22 -21 20 -47 -4 -69 -44 -40
-107 25 -69 71 15 19 54 18 73 -2z"/>
<path d="M2201 557 c-13 -8 -30 -25 -37 -38 -16 -29 -18 -93 -4 -120 26 -47
119 -64 161 -30 24 20 24 20 4 35 -12 9 -24 11 -29 5 -22 -21 -86 -4 -86 23 0
4 32 8 71 8 l72 0 -6 41 c-3 23 -14 51 -25 61 -25 25 -90 33 -121 15z m77 -49
c21 -21 13 -28 -28 -28 -22 0 -40 4 -40 8 0 14 23 32 40 32 9 0 21 -5 28 -12z"/>
<path d="M2397 563 c-4 -3 -7 -53 -7 -110 l0 -103 30 0 c30 0 30 1 30 55 0 46
4 60 25 80 13 14 29 25 35 25 5 0 10 14 10 30 0 36 -20 40 -50 10 l-20 -20 0
20 c0 14 -7 20 -23 20 -13 0 -27 -3 -30 -7z"/>
<path d="M194 511 c7 -11 46 -35 46 -28 0 3 -12 12 -26 22 -15 9 -23 12 -20 6z"/>
<path d="M106 458 c3 -5 10 -6 15 -3 13 9 11 12 -6 12 -8 0 -12 -4 -9 -9z"/>
<path d="M150 463 c0 -6 8 -17 18 -24 16 -13 16 -13 2 6 -8 11 -16 22 -17 24
-2 2 -3 0 -3 -6z"/>
<path d="M240 466 c0 -2 8 -10 18 -17 15 -13 16 -12 3 4 -13 16 -21 21 -21 13z"/>
<path d="M125 440 c-3 -5 -1 -10 4 -10 6 0 11 5 11 10 0 6 -2 10 -4 10 -3 0
-8 -4 -11 -10z"/>
<path d="M156 408 c3 -5 10 -6 15 -3 13 9 11 12 -6 12 -8 0 -12 -4 -9 -9z"/>
<path d="M360 314 c0 -16 -2 -17 -10 -4 -5 8 -10 11 -10 5 0 -5 4 -16 9 -24 7
-11 10 -9 16 8 4 13 4 25 1 28 -3 4 -6 -2 -6 -13z"/>
<path d="M100 217 l0 -107 114 0 c145 0 154 8 87 74 -43 42 -49 45 -61 31 -12
-14 -20 -9 -77 47 l-63 62 0 -107z"/>
<path d="M330 220 c0 -5 5 -10 11 -10 5 0 7 5 4 10 -3 6 -8 10 -11 10 -2 0 -4
-4 -4 -10z"/>
<path d="M2410 190 c0 -26 2 -29 14 -18 10 9 11 15 2 21 -8 5 -7 10 4 17 13 8
12 10 -2 10 -13 0 -18 -8 -18 -30z"/>
<path d="M1960 191 c0 -11 4 -22 9 -25 4 -3 6 6 3 19 -5 30 -12 33 -12 6z"/>
<path d="M2005 185 c0 -13 3 -21 8 -18 4 2 7 10 7 18 0 8 -3 16 -7 18 -5 3 -8
-5 -8 -18z"/>
<path d="M2062 185 c0 -16 2 -22 5 -12 2 9 2 23 0 30 -3 6 -5 -1 -5 -18z"/>
<path d="M2132 185 c0 -16 2 -22 5 -12 2 9 2 23 0 30 -3 6 -5 -1 -5 -18z"/>
<path d="M2162 185 c0 -16 2 -22 5 -12 2 9 2 23 0 30 -3 6 -5 -1 -5 -18z"/>
<path d="M1899 187 c6 -8 7 -18 3 -22 -4 -5 -1 -5 6 -1 10 6 10 11 1 22 -6 8
-14 14 -16 14 -3 0 0 -6 6 -13z"/>
<path d="M2511 174 c0 -11 3 -14 6 -6 3 7 2 16 -1 19 -3 4 -6 -2 -5 -13z"/>
</g>
</svg>
